<svg width="760" height="950" viewBox="0 0 760 950" fill="none" xmlns="http://www.w3.org/2000/svg">
<rect width="760" height="950" fill="#2C3748"/>
<rect x="190" y="190" width="190" height="190" fill="#2C3748"/>
<rect y="570" width="190" height="190" fill="#2C3748"/>
<path d="M380 190C380 85.0659 465.066 0 570 0V0V190H380V190Z" fill="#232C3B"/>
<path d="M380 570C380 465.066 465.066 380 570 380V380V570H380V570Z" fill="#2F3A4B"/>
<path d="M570 190C674.934 190 760 275.066 760 380V380H570V190V190Z" fill="#2F3B49"/>
<path d="M570 380C674.934 380 760 465.066 760 570V570H570V380V380Z" fill="#2F3A4B"/>
<path d="M380 950C380 845.066 465.066 760 570 760V760V950H380V950Z" fill="#2B3445"/>
<path d="M570 760C674.934 760 760 845.066 760 950V950H570V760V760Z" fill="#2B3445"/>
<path d="M190 190C85.0659 190 0 104.934 0 0V0H190V190V190Z" fill="#2B3445"/>
<path d="M190 380C85.0659 380 0 294.934 0 190V190H190V380V380Z" fill="#505D6F"/>
<path d="M190 570C85.0659 570 0 484.934 0 380V380H190V570V570Z" fill="#2F3A4B"/>
<path d="M380 0C380 104.934 294.934 190 190 190V190L190 0L380 0V0Z" fill="#2B3445"/>
<path d="M570 760C465.066 760 380 674.934 380 570V570H570V760V760Z" fill="#2B3445"/>
<path d="M190 950C85.0659 950 0 864.934 0 760V760H190V950V950Z" fill="#232C3B"/>
<path d="M760 570C760 674.934 674.934 760 570 760V760V570H760V570Z" fill="#2B3445"/>
<path d="M380 570C380 674.934 294.934 760 190 760V760L190 570H380V570Z" fill="#3F495C"/>
<path d="M380 380C380 484.934 294.934 570 190 570V570L190 380H380V380Z" fill="#2B3445"/>
<path d="M570 285C570 337.467 527.467 380 475 380C422.533 380 380 337.467 380 285C380 232.533 422.533 190 475 190C527.467 190 570 232.533 570 285Z" fill="#2B3445"/>
<path d="M380 855C380 907.467 337.467 950 285 950C232.533 950 190 907.467 190 855C190 802.533 232.533 760 285 760C337.467 760 380 802.533 380 855Z" fill="#2B3445"/>
</svg>
